<svg version="1.0" xmlns="http://www.w3.org/2000/svg"
 viewBox="0 0 68.000000 57.000000"
 preserveAspectRatio="xMidYMid meet">

<g transform="translate(0.000000,57.000000) scale(0.100000,-0.100000)"
fill="#000000" stroke="none">
<path d="M0 285 l0 -285 340 0 340 0 0 285 0 285 -340 0 -340 0 0 -285z m270
169 c0 -4 -7 -12 -17 -19 -9 -7 -14 -19 -10 -28 7 -19 70 -34 75 -18 2 6 10
11 17 11 7 0 15 -5 17 -11 5 -16 68 -1 75 18 4 9 -1 21 -11 28 -13 10 -14 15
-5 21 20 12 51 -34 39 -56 -9 -17 -6 -19 27 -22 l38 -3 3 -126 c2 -99 0 -129
-12 -138 -9 -8 -64 -11 -182 -9 l-169 3 0 135 0 135 37 3 c34 3 36 5 26 22
-10 15 -9 23 6 39 18 20 46 29 46 15z"/>
<path d="M262 298 c-31 -31 0 -105 33 -78 18 15 20 61 3 78 -15 15 -21 15 -36
0z m32 -23 c6 -17 -2 -45 -14 -45 -5 0 -11 9 -15 20 -11 33 16 57 29 25z"/>
<path d="M356 278 c-9 -12 -16 -28 -16 -34 0 -7 -3 -14 -7 -16 -9 -4 -43 -63
-43 -74 0 -12 21 21 59 89 32 57 35 76 7 35z"/>
<path d="M360 224 c-19 -22 -1 -68 27 -72 17 -2 24 3 29 22 13 54 -25 88 -56
50z m40 -34 c0 -32 -14 -40 -24 -14 -10 27 -7 44 9 44 10 0 15 -10 15 -30z"/>
</g>
</svg>
