<svg version="1.0" xmlns="http://www.w3.org/2000/svg" viewBox="0 0 69.000000 58.000000"
 preserveAspectRatio="xMidYMid meet">

<g transform="translate(0.000000,58.000000) scale(0.100000,-0.100000)"
fill="#000000" stroke="none">
<path d="M0 290 l0 -290 345 0 345 0 0 290 0 290 -345 0 -345 0 0 -290z m255
198 c11 -26 14 -28 15 -12 0 25 25 50 34 35 4 -5 0 -29 -9 -53 -8 -24 -15 -60
-15 -80 0 -27 -4 -38 -15 -38 -11 0 -15 11 -15 39 0 21 -7 55 -16 76 -14 34
-13 65 1 65 3 0 12 -15 20 -32z m115 -37 c22 -42 4 -122 -28 -121 -32 1 -54
79 -33 119 15 26 47 27 61 2z m50 -37 c0 -34 4 -53 10 -49 6 3 10 29 10 56 0
76 24 59 28 -19 l3 -62 -41 0 -40 0 0 65 c0 51 3 65 15 65 12 0 15 -13 15 -56z
m97 -117 c15 -15 18 -35 18 -113 0 -127 4 -124 -185 -124 -185 0 -184 -1 -188
112 -3 93 9 128 48 140 14 4 84 6 157 5 112 -2 135 -5 150 -20z"/>
<path d="M330 400 c0 -22 5 -40 10 -40 6 0 10 18 10 40 0 22 -4 40 -10 40 -5
0 -10 -18 -10 -40z"/>
<path d="M200 261 c0 -6 5 -13 10 -16 6 -3 10 -35 10 -71 0 -50 3 -64 15 -64
12 0 15 14 15 70 0 40 4 70 10 70 6 0 10 5 10 10 0 6 -16 10 -35 10 -19 0 -35
-4 -35 -9z"/>
<path d="M357 263 c-4 -3 -7 -39 -7 -80 l0 -73 35 0 35 0 0 56 c0 47 -3 57
-20 61 -11 3 -20 14 -20 24 0 19 -11 25 -23 12z m43 -99 c0 -24 -4 -34 -12
-32 -15 5 -22 42 -14 64 10 25 26 5 26 -32z"/>
<path d="M270 170 l0 -60 30 0 30 0 0 60 c0 33 -4 60 -10 60 -5 0 -10 -22 -10
-50 0 -27 -4 -50 -10 -50 -5 0 -10 23 -10 50 0 28 -4 50 -10 50 -6 0 -10 -27
-10 -60z"/>
<path d="M439 206 c-19 -40 0 -90 34 -94 22 -3 27 1 27 17 0 12 -4 21 -10 21
-5 0 -10 -4 -10 -10 0 -5 -4 -10 -10 -10 -19 0 -10 32 11 37 15 4 19 12 17 32
-4 37 -44 42 -59 7z m41 -11 c0 -8 -4 -15 -10 -15 -5 0 -10 7 -10 15 0 8 5 15
10 15 6 0 10 -7 10 -15z"/>
</g>
</svg>
