<svg version="1.0" xmlns="http://www.w3.org/2000/svg" viewBox="0 0 66.000000 55.000000"
 preserveAspectRatio="xMidYMid meet">

<g transform="translate(0.000000,55.000000) scale(0.100000,-0.100000)"
fill="#000000" stroke="none">
<path d="M0 275 l0 -275 330 0 330 0 0 275 0 275 -330 0 -330 0 0 -275z m430
170 c0 -30 -3 -35 -24 -35 -30 0 -49 -22 -44 -52 2 -18 10 -24 36 -26 23 -2
32 -8 32 -22 0 -36 -12 -50 -41 -50 l-29 0 0 -90 0 -90 -35 0 -34 0 -3 87 -3
88 -30 5 c-25 4 -30 10 -33 38 -3 30 -1 32 26 32 33 0 42 14 42 66 0 52 36 84
95 84 45 0 45 0 45 -35z"/>
</g>
</svg>
