<svg version="1.0" xmlns="http://www.w3.org/2000/svg" viewBox="0 0 39.000000 39.000000"
 preserveAspectRatio="xMidYMid meet">

<g transform="translate(0.000000,39.000000) scale(0.100000,-0.100000)"
fill="#000000" stroke="none">
<path d="M0 191 l0 -189 195 2 195 1 0 117 c0 84 -4 118 -13 121 -9 4 -9 6 1
6 8 1 12 21 12 66 l0 65 -195 0 -195 0 0 -189z m187 107 c37 -18 37 -38 0 -39
-22 -1 -16 -4 21 -9 67 -10 102 -40 102 -86 0 -18 -5 -36 -10 -39 -6 -4 -8
-14 -6 -23 5 -15 -5 -17 -68 -20 -52 -2 -83 1 -104 12 -35 18 -58 66 -44 93 5
10 7 24 5 31 -5 13 69 51 101 52 15 0 16 3 6 15 -7 8 -20 15 -29 15 -9 0 -23
5 -31 11 -12 8 -9 9 10 4 14 -3 35 -11 47 -17z m-103 -2 c-36 -16 -47 -37 -38
-72 5 -18 11 -24 23 -20 11 4 10 2 -3 -9 -30 -23 -33 -19 -31 31 1 49 29 84
64 84 9 -1 2 -7 -15 -14z"/>
</g>
</svg>
