<svg version="1.0" xmlns="http://www.w3.org/2000/svg" viewBox="0 0 70.000000 56.000000"
 preserveAspectRatio="xMidYMid meet">

<g transform="translate(0.000000,56.000000) scale(0.100000,-0.100000)"
fill="#000000" stroke="none">
<path d="M0 280 l0 -280 345 0 345 0 0 280 0 280 -345 0 -345 0 0 -280z m204
148 c8 -13 8 -23 0 -35 -9 -14 -7 -20 10 -28 43 -21 79 -145 42 -145 -8 0 -17
6 -19 13 -3 6 -6 -6 -6 -29 -1 -53 -19 -104 -37 -104 -8 0 -14 5 -14 11 0 8
-5 7 -15 -1 -22 -18 -32 -4 -42 60 -7 45 -12 55 -28 55 -17 0 -20 6 -18 39 3
44 44 106 71 106 12 0 13 3 4 12 -15 15 -15 41 0 56 16 16 38 12 52 -10z m340
0 c8 -13 8 -23 -1 -37 -11 -17 -10 -21 6 -26 34 -11 63 -112 38 -134 -8 -6
-17 -8 -20 -4 -4 3 -7 -18 -7 -48 0 -59 -15 -86 -36 -68 -8 7 -14 7 -19 -1
-15 -25 -35 13 -35 66 0 30 -3 53 -7 53 -30 -5 -34 2 -27 49 8 54 29 92 52 92
12 0 13 3 4 12 -15 15 -15 41 0 56 16 16 38 12 52 -10z m-169 -122 c19 -18 35
-39 35 -47 0 -8 -16 -29 -34 -48 -33 -32 -56 -35 -56 -5 0 8 -7 14 -15 14 -19
0 -21 66 -2 77 8 4 16 16 20 26 9 23 13 22 52 -17z"/>
<path d="M333 276 c-29 -13 -29 -22 -2 -37 17 -9 25 -8 37 5 14 14 14 18 2 29
-11 10 -21 11 -37 3z"/>
</g>
</svg>
